<svg width="351" height="249" viewBox="0 0 351 249" fill="none" xmlns="http://www.w3.org/2000/svg">
<g clip-path="url(#clip0_711_711)">
<path d="M83.6822 212H93.6422V211.07L89.1122 210.65H88.0922L83.6822 211.07V212ZM86.5922 212H90.3422C90.2522 208.61 90.2522 205.25 90.2522 202.34V200.24C90.2522 196.76 90.2522 193.31 90.3422 189.95H86.5922C86.6822 193.37 86.6822 196.79 86.6822 200.24V201.74C86.6822 205.22 86.6822 208.64 86.5922 212ZM88.4822 203.06H91.8122C98.4122 203.06 101.052 200.15 101.052 196.43C101.052 192.38 98.4122 189.95 92.4122 189.95H88.4822V191H92.2622C95.8922 191 97.6322 192.86 97.6322 196.4C97.6322 199.73 95.8622 202.01 91.7222 202.01H88.4822V203.06ZM83.6822 190.91L88.0922 191.27H88.4822V189.95H83.6822V190.91ZM111.688 212.48C114.058 212.48 115.288 211.46 117.088 209.48H118.018L117.628 207.95C115.468 210.2 114.358 210.8 113.248 210.8C111.688 210.8 110.668 209.87 110.668 208.04C110.668 206.18 111.718 204.86 114.028 203.96C115.198 203.54 116.938 203.06 118.528 202.64V201.89C116.938 202.28 114.838 202.79 113.248 203.27C108.928 204.5 107.458 206.03 107.458 208.52C107.458 211.01 109.258 212.48 111.688 212.48ZM119.938 212.45C121.408 212.45 122.398 211.88 123.088 210.62L122.578 210.2C122.068 210.86 121.708 211.07 121.228 211.07C120.508 211.07 120.118 210.59 120.118 209V201.35C120.118 197.39 118.408 195.74 114.628 195.74C110.758 195.74 108.388 197.33 107.908 199.91C108.118 200.72 108.688 201.17 109.528 201.17C110.428 201.17 111.148 200.63 111.268 199.16L111.658 196.85L110.038 197.6C111.418 196.97 112.498 196.7 113.578 196.7C115.888 196.7 116.818 197.6 116.818 200.87V209.12C117.028 211.19 117.988 212.45 119.938 212.45ZM118.498 193.73L119.038 193.22L115.048 187.52H113.668L109.678 193.22L110.248 193.73L115.408 189.26H113.338L118.498 193.73ZM132.665 197.36H138.425V196.19H132.665V197.36ZM135.005 212.48C136.835 212.48 138.155 211.82 138.995 210.59L138.545 210.08C137.735 210.62 137.195 210.89 136.355 210.89C135.065 210.89 134.345 210.14 134.345 208.37V196.67L134.435 191.45H132.215L131.045 196.52L131.615 196.13L128.195 196.43V197.36H130.955V205.31C130.955 206.48 130.925 207.2 130.925 208.25C130.925 211.16 132.275 212.48 135.005 212.48ZM144.93 212H152.85V211.13L149.64 210.83H148.17L144.93 211.13V212ZM147.21 212H150.78C150.72 210.53 150.69 207.11 150.69 205.04V200.48L150.78 196.04L150.39 195.8L144.72 197.21V197.96L147.21 198.11C147.27 199.58 147.33 201.02 147.33 203.03V205.04C147.33 207.11 147.27 210.53 147.21 212ZM148.8 192.35C149.94 192.35 150.87 191.54 150.87 190.37C150.87 189.23 149.94 188.39 148.8 188.39C147.69 188.39 146.76 189.23 146.76 190.37C146.76 191.54 147.69 192.35 148.8 192.35ZM165.294 212.48C169.554 212.48 171.894 210.47 171.894 207.5C171.894 205.25 170.664 203.78 167.574 202.76L165.954 202.22C163.704 201.5 162.954 200.66 162.954 199.37C162.954 197.81 164.124 196.76 166.254 196.76C167.544 196.76 168.474 197.12 169.704 197.96V197L168.564 196.7L169.524 200.48H170.934L171.084 197.06C169.464 196.19 168.084 195.74 166.194 195.74C162.294 195.74 160.104 197.78 160.104 200.54C160.104 202.91 161.664 204.32 164.184 205.16L165.804 205.73C168.234 206.48 168.924 207.35 168.924 208.73C168.924 210.41 167.604 211.43 165.114 211.43C163.434 211.43 162.324 211.04 161.094 210.23V211.31L162.384 211.43L161.574 207.41H160.014L159.924 211.16C161.604 212.03 163.224 212.48 165.294 212.48ZM184.443 212.48C188.703 212.48 191.043 210.47 191.043 207.5C191.043 205.25 189.813 203.78 186.723 202.76L185.103 202.22C182.853 201.5 182.103 200.66 182.103 199.37C182.103 197.81 183.273 196.76 185.403 196.76C186.693 196.76 187.623 197.12 188.853 197.96V197L187.713 196.7L188.673 200.48H190.083L190.233 197.06C188.613 196.19 187.233 195.74 185.343 195.74C181.443 195.74 179.253 197.78 179.253 200.54C179.253 202.91 180.813 204.32 183.333 205.16L184.953 205.73C187.383 206.48 188.073 207.35 188.073 208.73C188.073 210.41 186.753 211.43 184.263 211.43C182.583 211.43 181.473 211.04 180.243 210.23V211.31L181.533 211.43L180.723 207.41H179.163L179.073 211.16C180.753 212.03 182.373 212.48 184.443 212.48ZM206.081 212.48C208.931 212.48 211.091 211.16 212.381 208.91L211.871 208.52C210.731 209.93 209.261 210.74 207.161 210.74C203.951 210.74 201.611 208.64 201.611 203.72C201.611 199.07 203.471 196.73 205.751 196.73C207.881 196.73 209.201 198.35 209.201 200.96C209.201 202.43 208.841 203 207.671 203H199.571V203.99H212.201C212.351 203.48 212.411 202.91 212.411 202.19C212.411 198.56 210.041 195.74 205.871 195.74C201.731 195.74 198.071 198.86 198.071 204.11C198.071 209.6 201.401 212.48 206.081 212.48ZM219.237 212H227.877V211.13L224.547 210.8H222.507L219.237 211.13V212ZM221.517 212H225.087C225.027 210.53 224.997 207.11 224.997 205.04V200.3L224.787 196.04L224.397 195.8L219.057 197.24V197.99L221.517 198.17C221.607 199.64 221.637 200.96 221.637 202.97V205.04C221.637 207.11 221.607 210.53 221.517 212ZM224.997 202.43C225.897 199.67 227.097 198.2 228.987 197.45L227.757 197.3L228.447 198.05C229.167 198.92 229.767 199.43 230.697 199.43C231.927 199.43 232.467 198.65 232.497 197.48C232.197 196.25 231.177 195.74 229.917 195.74C227.877 195.74 225.717 197.6 224.847 200.72H224.127L224.997 202.43ZM238.358 212H246.278V211.13L243.068 210.83H241.598L238.358 211.13V212ZM240.638 212H244.208C244.148 210.53 244.118 207.11 244.118 205.04V200.48L244.208 196.04L243.818 195.8L238.148 197.21V197.96L240.638 198.11C240.698 199.58 240.758 201.02 240.758 203.03V205.04C240.758 207.11 240.698 210.53 240.638 212ZM242.228 192.35C243.368 192.35 244.298 191.54 244.298 190.37C244.298 189.23 243.368 188.39 242.228 188.39C241.118 188.39 240.188 189.23 240.188 190.37C240.188 191.54 241.118 192.35 242.228 192.35ZM261.212 212.48C264.062 212.48 266.222 211.16 267.512 208.91L267.002 208.52C265.862 209.93 264.392 210.74 262.292 210.74C259.082 210.74 256.742 208.64 256.742 203.72C256.742 199.07 258.602 196.73 260.882 196.73C263.012 196.73 264.332 198.35 264.332 200.96C264.332 202.43 263.972 203 262.802 203H254.702V203.99H267.332C267.482 203.48 267.542 202.91 267.542 202.19C267.542 198.56 265.172 195.74 261.002 195.74C256.862 195.74 253.202 198.86 253.202 204.11C253.202 209.6 256.532 212.48 261.212 212.48Z" fill="#515151"/>
<path d="M16.2616 163H33.0136V161.464L25.5256 160.744H23.6056L16.2616 161.464V163ZM20.7256 163H27.8296C27.6856 157.48 27.6856 151.912 27.6856 145.768V144.424C27.6856 138.52 27.6856 132.904 27.8296 127.48H20.7256C20.8696 133 20.8696 138.52 20.8696 144.136V146.392C20.8696 152.008 20.8696 157.624 20.7256 163ZM24.2776 145.768H36.2296V144.088H24.2776V145.768ZM35.6536 150.904H37.8136V139H35.6536L34.9336 144.184V145.576L35.6536 150.904ZM16.2616 129.064L23.6056 129.688H24.2776V127.48H16.2616V129.064ZM40.8856 136.696H43.3816L43.3336 127.48H24.2776V129.304H41.9896L38.5336 127.576L40.8856 136.696ZM69.8224 163H80.6704V161.464L75.4864 160.792H74.5744L69.8224 161.464V163ZM73.1344 163H75.5344L85.2304 132.184L85.3744 131.512H84.3664L94.4944 163H101.454L89.2624 127.288H85.0864L73.1344 163ZM78.4624 151.432H94.3504L94.0144 149.848H78.7984L78.4624 151.432ZM88.9264 163H104.526V161.416L97.8544 160.744H95.4064L88.9264 161.416V163ZM138.36 163H155.496V161.464L147.768 160.744H145.896L138.36 161.464V163ZM143.352 163H150.456C150.312 157.48 150.312 151.912 150.312 146.392V144.136C150.312 138.52 150.312 132.904 150.456 127.48H143.352C143.496 133 143.496 138.52 143.496 144.136V146.392C143.496 152.008 143.496 157.624 143.352 163ZM131.304 137.416H133.896L136.392 127.48L133.128 129.304H160.632L157.416 127.48L160.008 137.416H162.504L162.264 127.48H131.592L131.304 137.416ZM193.483 163H220.651L220.891 152.824H218.491L215.803 162.472L217.531 161.224H200.587V160.024L200.203 162.424L220.363 129.544V127.48H194.635L194.203 137.416H196.891L199.195 128.008L197.467 129.304H213.259V130.024L213.739 128.2L193.483 160.984V163ZM251.707 163H262.555V161.464L257.371 160.792H256.459L251.707 161.464V163ZM255.019 163H257.419L267.115 132.184L267.259 131.512H266.251L276.379 163H283.339L271.147 127.288H266.971L255.019 163ZM260.347 151.432H276.235L275.899 149.848H260.683L260.347 151.432ZM270.811 163H286.411V161.416L279.739 160.744H277.291L270.811 161.416V163ZM317.621 163H333.701V161.464L326.261 160.744H324.965L317.621 161.464V163ZM322.085 163H329.237C329.093 157.48 329.093 151.912 329.093 146.392V144.136C329.093 138.52 329.093 132.904 329.237 127.48H322.085C322.277 133 322.277 138.52 322.277 144.136V146.392C322.277 152.008 322.277 157.624 322.085 163ZM317.621 129.064L324.965 129.688H326.261L333.701 129.064V127.48H317.621V129.064Z" fill="#515151"/>
<line x1="0.5" y1="175.5" x2="350.5" y2="175.5" stroke="#515151" stroke-linecap="round"/>
<line x1="0.5" y1="98.4171" x2="99.5" y2="98.4171" stroke="#515151" stroke-linecap="round"/>
<path d="M251 98H351" stroke="#515151" stroke-linecap="round"/>
<mask id="path-6-inside-1_711_711" fill="white">
<path fill-rule="evenodd" clip-rule="evenodd" d="M119.419 73.0858C118.598 73.3348 118 74.0976 118 75V97.4399C118 98.103 118.329 98.7229 118.877 99.0951L125.23 103.404C125.324 103.468 125.424 103.524 125.528 103.571L134.058 107.427C134.164 107.476 134.275 107.515 134.389 107.543L147.979 111L159.774 113L173.043 114H186.312L196.632 113L208.239 111.032C208.364 111.011 208.487 110.978 208.606 110.933L217.765 107.5L227.103 102.5L232.123 99.0951C232.671 98.7229 233 98.103 233 97.4399V75C233 74.4123 232.747 73.8838 232.343 73.5179C232.226 73.6721 232.085 73.8124 231.919 73.9329L227.147 77.392C227.061 77.4547 226.969 77.5104 226.874 77.5585L220.229 80.9098C220.128 80.9607 220.023 81.0029 219.916 81.036L208.677 84.4862L194.302 86.9862L185.875 87.9862H173.483L159.604 86.9862L149.69 85.4862L139.776 82.9862L132.539 81.0395C132.407 81.0041 132.279 80.9553 132.158 80.8939L125.401 77.4862L120.12 73.9141C119.799 73.6973 119.565 73.4081 119.419 73.0858Z"/>
</mask>
<path d="M119.419 73.0858L120.33 72.6734L119.968 71.8743L119.128 72.1289L119.419 73.0858ZM118.877 99.0951L118.316 99.9227L118.316 99.9227L118.877 99.0951ZM125.23 103.404L124.668 104.231L124.668 104.231L125.23 103.404ZM125.528 103.571L125.116 104.482L125.116 104.482L125.528 103.571ZM134.058 107.427L133.646 108.339L133.646 108.339L134.058 107.427ZM134.389 107.543L134.635 106.574L134.635 106.574L134.389 107.543ZM147.979 111L147.732 111.969L147.771 111.979L147.811 111.986L147.979 111ZM159.774 113L159.606 113.986L159.652 113.994L159.698 113.997L159.774 113ZM173.043 114L172.968 114.997L173.005 115H173.043V114ZM186.312 114V115H186.36L186.408 114.995L186.312 114ZM196.632 113L196.729 113.995L196.764 113.992L196.8 113.986L196.632 113ZM208.239 111.032L208.072 110.046L208.072 110.046L208.239 111.032ZM208.606 110.933L208.957 111.869L208.957 111.869L208.606 110.933ZM217.765 107.5L218.116 108.436L218.178 108.413L218.237 108.382L217.765 107.5ZM227.103 102.5L227.575 103.382L227.621 103.357L227.664 103.328L227.103 102.5ZM232.123 99.0951L232.684 99.9227L232.684 99.9227L232.123 99.0951ZM232.343 73.5179L233.015 72.777L232.204 72.0424L231.545 72.9152L232.343 73.5179ZM231.919 73.9329L232.506 74.7425L232.506 74.7425L231.919 73.9329ZM227.147 77.392L226.56 76.5824L226.56 76.5824L227.147 77.392ZM226.874 77.5585L226.424 76.6656L226.424 76.6656L226.874 77.5585ZM220.229 80.9098L219.779 80.017L219.779 80.017L220.229 80.9098ZM219.916 81.036L220.209 81.992L220.209 81.992L219.916 81.036ZM208.677 84.4862L208.848 85.4714L208.91 85.4607L208.97 85.4422L208.677 84.4862ZM194.302 86.9862L194.42 87.9793L194.447 87.9761L194.473 87.9714L194.302 86.9862ZM185.875 87.9862V88.9862H185.934L185.993 88.9793L185.875 87.9862ZM173.483 87.9862L173.411 88.9836L173.447 88.9862H173.483V87.9862ZM159.604 86.9862L159.454 87.975L159.493 87.9808L159.532 87.9836L159.604 86.9862ZM149.69 85.4862L149.445 86.4559L149.492 86.4677L149.54 86.475L149.69 85.4862ZM139.776 82.9862L139.516 83.9519L139.524 83.9539L139.531 83.9559L139.776 82.9862ZM132.539 81.0395L132.279 82.0052L132.279 82.0052L132.539 81.0395ZM132.158 80.8939L131.707 81.7868L131.707 81.7868L132.158 80.8939ZM125.401 77.4862L124.841 78.3146L124.894 78.3503L124.951 78.3791L125.401 77.4862ZM120.12 73.9141L119.559 74.7424L119.559 74.7424L120.12 73.9141ZM119 75C119 74.5503 119.298 74.1675 119.709 74.0428L119.128 72.1289C117.898 72.5021 117 73.645 117 75H119ZM119 97.4399V75H117V97.4399H119ZM119.439 98.2675C119.164 98.0814 119 97.7714 119 97.4399H117C117 98.4345 117.493 99.3644 118.316 99.9227L119.439 98.2675ZM125.791 102.576L119.439 98.2675L118.316 99.9227L124.668 104.231L125.791 102.576ZM125.94 102.66C125.888 102.636 125.838 102.608 125.791 102.576L124.668 104.231C124.81 104.327 124.96 104.411 125.116 104.482L125.94 102.66ZM134.47 106.516L125.94 102.66L125.116 104.482L133.646 108.339L134.47 106.516ZM134.635 106.574C134.578 106.56 134.523 106.54 134.47 106.516L133.646 108.339C133.806 108.411 133.972 108.469 134.142 108.513L134.635 106.574ZM148.225 110.031L134.635 106.574L134.142 108.513L147.732 111.969L148.225 110.031ZM159.941 112.014L148.146 110.014L147.811 111.986L159.606 113.986L159.941 112.014ZM173.118 113.003L159.849 112.003L159.698 113.997L172.968 114.997L173.118 113.003ZM186.312 113H173.043V115H186.312V113ZM196.536 112.005L186.216 113.005L186.408 114.995L196.729 113.995L196.536 112.005ZM208.072 110.046L196.465 112.014L196.8 113.986L208.406 112.018L208.072 110.046ZM208.255 109.997C208.196 110.019 208.134 110.035 208.072 110.046L208.406 112.018C208.594 111.986 208.779 111.936 208.957 111.869L208.255 109.997ZM217.414 106.564L208.255 109.997L208.957 111.869L218.116 108.436L217.414 106.564ZM226.631 101.618L217.293 106.618L218.237 108.382L227.575 103.382L226.631 101.618ZM231.561 98.2675L226.541 101.672L227.664 103.328L232.684 99.9227L231.561 98.2675ZM232 97.4399C232 97.7714 231.836 98.0814 231.561 98.2675L232.684 99.9227C233.507 99.3644 234 98.4345 234 97.4399H232ZM232 75V97.4399H234V75H232ZM231.671 74.2588C231.875 74.4431 232 74.7062 232 75H234C234 74.1184 233.618 73.3245 233.015 72.777L231.671 74.2588ZM231.545 72.9152C231.488 72.9909 231.417 73.0613 231.332 73.1233L232.506 74.7425C232.753 74.5634 232.965 74.3533 233.141 74.1206L231.545 72.9152ZM231.332 73.1233L226.56 76.5824L227.734 78.2016L232.506 74.7425L231.332 73.1233ZM226.56 76.5824C226.517 76.6138 226.471 76.6416 226.424 76.6656L227.324 78.4514C227.467 78.3792 227.605 78.2957 227.734 78.2016L226.56 76.5824ZM226.424 76.6656L219.779 80.017L220.68 81.8027L227.324 78.4514L226.424 76.6656ZM219.779 80.017C219.729 80.0424 219.676 80.0635 219.622 80.0801L220.209 81.992C220.371 81.9423 220.528 81.879 220.68 81.8027L219.779 80.017ZM219.622 80.0801L208.383 83.5303L208.97 85.4422L220.209 81.992L219.622 80.0801ZM208.506 83.501L194.131 86.001L194.473 87.9714L208.848 85.4714L208.506 83.501ZM194.184 85.9932L185.757 86.9932L185.993 88.9793L194.42 87.9793L194.184 85.9932ZM185.875 86.9862H173.483V88.9862H185.875V86.9862ZM173.555 86.9888L159.675 85.9888L159.532 87.9836L173.411 88.9836L173.555 86.9888ZM159.753 85.9975L149.839 84.4975L149.54 86.475L159.454 87.975L159.753 85.9975ZM149.934 84.5166L140.021 82.0166L139.531 83.9559L149.445 86.4559L149.934 84.5166ZM140.036 82.0206L132.798 80.0738L132.279 82.0052L139.516 83.9519L140.036 82.0206ZM132.798 80.0738C132.733 80.0561 132.669 80.0317 132.608 80.001L131.707 81.7868C131.89 81.8789 132.081 81.952 132.279 82.0052L132.798 80.0738ZM132.608 80.001L125.851 76.5934L124.951 78.3791L131.707 81.7868L132.608 80.001ZM125.961 76.6579L120.68 73.0857L119.559 74.7424L124.841 78.3146L125.961 76.6579ZM120.68 73.0857C120.517 72.9753 120.401 72.8319 120.33 72.6734L118.508 73.4983C118.728 73.9843 119.082 74.4193 119.559 74.7424L120.68 73.0857Z" fill="#515151" mask="url(#path-6-inside-1_711_711)"/>
<path d="M176.459 22.5722L231.73 72.2109C232.442 72.8509 232.381 73.9859 231.603 74.5449L226.795 78.0007C226.73 78.0473 226.661 78.0886 226.59 78.1243L219.884 81.4774C219.809 81.515 219.73 81.5463 219.65 81.5708L208.341 85.0126L193.885 87.505L185.427 88.5H172.974L159.012 87.5027L149.055 86.0091L139.085 83.5169L139.078 83.5149L131.782 81.5694C131.684 81.5432 131.589 81.5071 131.498 81.4617L124.709 78.067L119.413 74.5163C118.601 73.9716 118.519 72.8079 119.247 72.1544L174.454 22.5722C175.025 22.0602 175.889 22.0602 176.459 22.5722Z" stroke="#515151"/>
</g>
<defs>
<clipPath id="clip0_711_711">
<rect width="351" height="249" fill="white"/>
</clipPath>
</defs>
</svg>
